<?xml version="1.0" encoding="UTF-8"?> <!-- Generator: Adobe Illustrator 23.0.3, SVG Export Plug-In . SVG Version: 6.00 Build 0) --> <svg xmlns:cc="http://creativecommons.org/ns#" xmlns:dc="http://purl.org/dc/elements/1.1/" xmlns:inkscape="http://www.inkscape.org/namespaces/inkscape" xmlns:rdf="http://www.w3.org/1999/02/22-rdf-syntax-ns#" xmlns:sodipodi="http://sodipodi.sourceforge.net/DTD/sodipodi-0.dtd" xmlns:svg="http://www.w3.org/2000/svg" xmlns="http://www.w3.org/2000/svg" xmlns:xlink="http://www.w3.org/1999/xlink" id="logosvg.com" inkscape:version="0.47 r22583" sodipodi:docname="Nick Jr..svg" x="0px" y="0px" viewBox="0 0 400 300" style="enable-background:new 0 0 400 300;" xml:space="preserve"> <style type="text/css"> .st0{fill:#F57C14;} .st1{fill:#4AC3CB;} </style> <path id="orange" class="st0" d="M39.5,132.1C30,132,21.2,136,15,142.2c-6.2,6.2-10.2,15-10.2,24.5v31.7h26.3v-13.9v-17.3 c0-3.8,0.9-7,2.4-9.5c1.6-2.5,3.6-3.9,5.9-4c2.3,0,4.4,1.5,5.9,4c1.5,2.5,2.4,5.7,2.4,9.5v31.1h26.3v-31.7c0-9.5-3.9-18.3-10.2-24.5 C57.8,136,49,132,39.5,132.1 M102.5,123.5c2.6-2.6,4.3-6.3,4.3-10.4c0-4-1.6-7.7-4.3-10.3c-2.6-2.6-6.3-4.3-10.4-4.3 c-4,0-7.7,1.6-10.3,4.3c-2.6,2.6-4.3,6.3-4.3,10.3c0,4,1.6,7.7,4.3,10.4l3.2,3.2c5.4,5.4,5.8,6.8,0.6,11.9l-2.9,2.9 c-2.4,2.4-3.9,5.7-3.9,9.4v47.3h26.6v-47.3c0-3.7-1.5-7-3.9-9.4l-2.9-2.9c-5.1-5.1-4.7-6.6,0.6-12L102.5,123.5z M149.6,177.8 c-1.6,2.9-3.6,4.6-5.9,4.6c-2.3,0-4.3-1.7-5.9-4.6c-1.5-2.9-2.4-6.6-2.4-11c0-4.4,0.9-8.1,2.4-11c1.6-2.9,3.6-4.6,5.9-4.6 c2.3,0,4.3,1.7,5.9,4.6c1.1,2.2,1.9,4.8,2.3,7.8h26.4c-0.8-8.3-4.5-15.7-10-21.3c-6.2-6.2-15-10.2-24.5-10.2 c-9.5,0-18.3,3.9-24.5,10.2c-6.2,6.2-10.2,15-10.2,24.5c0,9.5,3.9,18.3,10.2,24.5c4.8,4.8,13.2,10.2,24.5,10.2 c8.5,0,16.4-3.1,22.5-8.3c4.4-3.7,10.9-11.2,12-23.1h-26.4C151.6,173,150.8,175.6,149.6,177.8 M247.9,193.8c0-0.9-0.3-1.7-0.7-2.4 l-14.4-21.8l10-18.1c3.7-6.3,1.6-14.3-4.7-18c-6.3-3.7-14.3-1.6-18,4.7l-11.9,21.3v-14.2c0-7.3-5.9-13.2-13.2-13.2 c-7.3,0-13.2,5.9-13.2,13.2v53.2h26.3v-20.8l13.9,20.8l21.2,0l0,0C245.8,198.4,247.9,196.3,247.9,193.8"></path> <path id="blue" class="st1" d="M303.1,174.5c0,16-7.8,26.4-26.6,26.4h-0.7c-6.6,0-13.4-1.7-17.7-4.5c-7.4-4.8-12.3-12.7-7.4-21 c4.5-7.7,20.5-9.1,22.8,4.3c0.8,4.7,3.3,4.1,3.3-0.2l0-32c0-9.5,5.9-15.4,13.2-15.4c7.3,0,13.1,5.9,13.1,13.1L303.1,174.5 L303.1,174.5z M290,127.9c7.2,0,13-5.8,13-13s-5.8-13-13-13c-7.2,0-13,5.8-13,13S282.8,127.9,290,127.9 M335.9,198.4V163 c0-2.6,1.6-6.9,4.6-8c3-1.2,5.8,0.2,9.1,1.4c10.9,4.2,19.4-1.3,20.7-8.5c1.3-7.1-3.4-14-10.5-15.3c-8.8-1.6-14.9,1.1-22.1,6.6 c0,0,0,0,0,0c-0.5,0.4-1.9,1.6-2.3,2c-1.7-5.3-6.7-9.2-12.5-9.2c-7.3,0-13.1,5.9-13.1,13.1v53.2L335.9,198.4L335.9,198.4z M358.4,199.1c7.2,0,13-5.8,13-13c0-7.2-5.8-13-13-13c-7.2,0-13,5.8-13,13C345.4,193.3,351.2,199.1,358.4,199.1 M386.1,136.1h0.3 l4.3,4.8l4.2-4.8h0.3v9h-1.6v-5.6l-2.8,3.3h-0.3l-2.8-3.3v5.6h-1.6L386.1,136.1L386.1,136.1z M379.9,137.7h-2.7v-1.4h7v1.4h-2.7v7.5 h-1.6V137.7z"></path> </svg> 